<svg width="111" height="25" viewBox="0 0 111 25" fill="none" xmlns="http://www.w3.org/2000/svg">
<path d="M8.61816 14.9116C8.69954 14.8709 8.77279 14.8506 8.83789 14.8506C8.95182 14.8506 9.04134 14.8953 9.10645 14.9849L10.0952 16.4375C10.1522 16.5026 10.1807 16.5758 10.1807 16.6572C10.1807 16.763 10.1278 16.8566 10.022 16.938C9.50928 17.3774 8.93555 17.7192 8.30078 17.9634C7.67415 18.2075 7.01497 18.3296 6.32324 18.3296C5.29785 18.3296 4.34977 18.0773 3.479 17.5728C2.61637 17.0682 1.92871 16.3887 1.41602 15.5342C0.911458 14.6715 0.65918 13.7316 0.65918 12.7144C0.65918 11.6971 0.911458 10.7612 1.41602 9.90674C1.92057 9.04411 2.60417 8.36458 3.4668 7.86816C4.33757 7.36361 5.28564 7.11133 6.31104 7.11133C7.0109 7.11133 7.68229 7.2334 8.3252 7.47754C8.9681 7.71354 9.54183 8.0472 10.0464 8.47852C10.1359 8.5599 10.1807 8.64535 10.1807 8.73486C10.1807 8.81624 10.1522 8.89762 10.0952 8.979L9.11865 10.4683C9.04541 10.5741 8.95589 10.627 8.8501 10.627C8.77686 10.627 8.70361 10.6025 8.63037 10.5537C7.91423 9.97591 7.15332 9.68701 6.34766 9.68701C5.80241 9.68701 5.30192 9.82129 4.84619 10.0898C4.39046 10.3584 4.02832 10.7246 3.75977 11.1885C3.49935 11.6523 3.36914 12.1569 3.36914 12.7021C3.36914 13.2474 3.50342 13.756 3.77197 14.228C4.04053 14.6919 4.40267 15.0622 4.8584 15.3389C5.31413 15.6156 5.81462 15.7539 6.35986 15.7539C7.19808 15.7539 7.95085 15.4731 8.61816 14.9116ZM11.4502 12.7266C11.4502 11.7012 11.7025 10.7612 12.207 9.90674C12.7197 9.04411 13.4115 8.36458 14.2822 7.86816C15.153 7.36361 16.1092 7.11133 17.1509 7.11133C18.1844 7.11133 19.1366 7.36361 20.0073 7.86816C20.8781 8.36458 21.5658 9.04411 22.0703 9.90674C22.5749 10.7612 22.8271 11.7012 22.8271 12.7266C22.8271 13.752 22.5708 14.6919 22.0581 15.5464C21.5535 16.4009 20.8659 17.0804 19.9951 17.585C19.1325 18.0814 18.1844 18.3296 17.1509 18.3296C16.1092 18.3296 15.153 18.0814 14.2822 17.585C13.4115 17.0885 12.7197 16.4131 12.207 15.5586C11.7025 14.696 11.4502 13.752 11.4502 12.7266ZM14.1113 12.7266C14.1113 13.2718 14.2456 13.7764 14.5142 14.2402C14.7827 14.7041 15.1489 15.0744 15.6128 15.3511C16.0767 15.6196 16.5853 15.7539 17.1387 15.7539C17.6921 15.7539 18.2007 15.6196 18.6646 15.3511C19.1366 15.0744 19.5068 14.7082 19.7754 14.2524C20.0439 13.7886 20.1782 13.2799 20.1782 12.7266C20.1782 12.1732 20.0439 11.6646 19.7754 11.2007C19.5068 10.7287 19.1366 10.3584 18.6646 10.0898C18.2007 9.81315 17.6921 9.6748 17.1387 9.6748C16.5853 9.6748 16.0767 9.81315 15.6128 10.0898C15.1489 10.3584 14.7827 10.7287 14.5142 11.2007C14.2456 11.6646 14.1113 12.1732 14.1113 12.7266ZM35.0952 0.15332C35.2091 0.15332 35.2946 0.185872 35.3516 0.250977C35.4167 0.307943 35.4492 0.393392 35.4492 0.507324V17.646C35.4492 17.7599 35.4167 17.8494 35.3516 17.9146C35.2946 17.9797 35.2091 18.0122 35.0952 18.0122H33.4961C33.431 18.0122 33.37 17.9959 33.313 17.9634C33.2642 17.9227 33.2316 17.8739 33.2153 17.8169L32.9956 16.3887C32.5643 17.0072 32.0231 17.4873 31.3721 17.8291C30.721 18.1628 30.0049 18.3296 29.2236 18.3296C28.2633 18.3296 27.3966 18.0854 26.6235 17.5972C25.8504 17.1089 25.2441 16.4375 24.8047 15.583C24.3652 14.7285 24.1455 13.7723 24.1455 12.7144C24.1455 11.6564 24.3612 10.7002 24.7925 9.8457C25.2319 8.99121 25.8382 8.32389 26.6113 7.84375C27.3844 7.35547 28.2552 7.11133 29.2236 7.11133C29.9642 7.11133 30.6396 7.26188 31.25 7.56299C31.8685 7.85596 32.3934 8.27507 32.8247 8.82031L32.7881 0.507324C32.7881 0.40153 32.8166 0.316081 32.8735 0.250977C32.9386 0.185872 33.0241 0.15332 33.1299 0.15332H35.0952ZM29.7241 15.7661C30.2856 15.7661 30.7983 15.6318 31.2622 15.3633C31.7342 15.0866 32.1045 14.7163 32.373 14.2524C32.6497 13.7804 32.7881 13.2637 32.7881 12.7021C32.7881 12.1488 32.6497 11.6442 32.373 11.1885C32.1045 10.7246 31.7342 10.3584 31.2622 10.0898C30.7902 9.82129 30.2734 9.68701 29.7119 9.68701C29.1667 9.68701 28.6621 9.82129 28.1982 10.0898C27.7425 10.3584 27.3804 10.7246 27.1118 11.1885C26.8433 11.6523 26.709 12.1569 26.709 12.7021C26.709 13.2637 26.8433 13.7804 27.1118 14.2524C27.3804 14.7163 27.7425 15.0866 28.1982 15.3633C28.6621 15.6318 29.1707 15.7661 29.7241 15.7661ZM39.7461 4.21826C39.4531 4.21826 39.1805 4.14502 38.9282 3.99854C38.6759 3.85205 38.4725 3.65674 38.3179 3.4126C38.1714 3.16032 38.0981 2.8877 38.0981 2.59473C38.0981 2.30176 38.1714 2.02913 38.3179 1.77686C38.4725 1.52458 38.6759 1.3252 38.9282 1.17871C39.1805 1.03223 39.4531 0.958984 39.7461 0.958984C40.0391 0.958984 40.3117 1.03223 40.564 1.17871C40.8162 1.3252 41.0156 1.52458 41.1621 1.77686C41.3086 2.02913 41.3818 2.30176 41.3818 2.59473C41.3818 2.8877 41.3086 3.16032 41.1621 3.4126C41.0156 3.65674 40.8162 3.85205 40.564 3.99854C40.3117 4.14502 40.0391 4.21826 39.7461 4.21826ZM40.7227 7.4165C40.8285 7.4165 40.9098 7.44499 40.9668 7.50195C41.0319 7.55892 41.0645 7.6403 41.0645 7.74609V17.6826C41.0645 17.7884 41.0319 17.8698 40.9668 17.9268C40.9098 17.9837 40.8285 18.0122 40.7227 18.0122H38.7451C38.5254 18.0122 38.4155 17.9023 38.4155 17.6826V7.74609C38.4155 7.52637 38.5254 7.4165 38.7451 7.4165H40.7227ZM49.7925 7.08691C50.6632 7.08691 51.4201 7.28223 52.063 7.67285C52.7059 8.06348 53.1982 8.62093 53.54 9.34521C53.8818 10.0695 54.0527 10.9159 54.0527 11.8843V17.646C54.0527 17.7518 54.0202 17.8372 53.9551 17.9023C53.8981 17.9593 53.8127 17.9878 53.6987 17.9878H51.7456C51.6317 17.9878 51.5422 17.9593 51.4771 17.9023C51.4201 17.8372 51.3916 17.7518 51.3916 17.646V11.8721C51.3916 11.457 51.2858 11.0786 51.0742 10.7368C50.8708 10.3869 50.59 10.1143 50.2319 9.91895C49.882 9.72363 49.4995 9.62598 49.0845 9.62598C48.645 9.62598 48.2381 9.73177 47.8638 9.94336C47.4894 10.1468 47.1924 10.4357 46.9727 10.8101C46.7529 11.1763 46.6431 11.5872 46.6431 12.043V17.6582C46.6431 17.8942 46.5291 18.0122 46.3013 18.0122H44.3481C44.1203 18.0122 44.0063 17.8942 44.0063 17.6582V7.7583C44.0063 7.65251 44.0348 7.57113 44.0918 7.51416C44.1569 7.44906 44.2464 7.4165 44.3604 7.4165H45.9106C46.106 7.4165 46.2199 7.48975 46.2524 7.63623L46.46 8.73486C46.8506 8.22217 47.3348 7.81934 47.9126 7.52637C48.4985 7.2334 49.1252 7.08691 49.7925 7.08691ZM63.2324 17.4751C64.0544 17.4751 64.7664 17.6053 65.3687 17.8657C65.9709 18.118 66.4347 18.4842 66.7603 18.9644C67.0939 19.4526 67.2607 20.0264 67.2607 20.6855C67.2607 21.5075 67.0369 22.2114 66.5894 22.7974C66.1418 23.3914 65.5029 23.8431 64.6729 24.1523C63.8509 24.4697 62.8906 24.6284 61.792 24.6284C60.9619 24.6284 60.1115 24.5592 59.2407 24.4209C58.3781 24.2907 57.6457 24.1035 57.0435 23.8594C56.9621 23.8187 56.897 23.7617 56.8481 23.6885C56.8075 23.6234 56.7871 23.5501 56.7871 23.4688C56.7871 23.4199 56.7993 23.363 56.8237 23.2979L57.3975 21.8696C57.43 21.7882 57.4788 21.7231 57.5439 21.6743C57.609 21.6336 57.6823 21.6133 57.7637 21.6133C57.7962 21.6133 57.8451 21.6214 57.9102 21.6377C58.4147 21.8249 59.021 21.9754 59.729 22.0894C60.437 22.2033 61.1247 22.2603 61.792 22.2603C62.7523 22.2603 63.5091 22.1423 64.0625 21.9062C64.6159 21.6702 64.8926 21.3325 64.8926 20.8931C64.8926 20.5106 64.7542 20.238 64.4775 20.0752C64.209 19.9124 63.7939 19.8311 63.2324 19.8311H60.0586C59.3587 19.8311 58.7321 19.709 58.1787 19.4648C57.6335 19.2288 57.2062 18.887 56.897 18.4395C56.5959 18 56.4453 17.4792 56.4453 16.877C56.4453 16.3805 56.5552 15.9289 56.7749 15.522C57.0028 15.1151 57.312 14.8058 57.7026 14.5942C57.3853 14.2036 57.1411 13.7642 56.9702 13.2759C56.7993 12.7876 56.7139 12.2668 56.7139 11.7134C56.7139 10.8263 56.9092 10.0329 57.2998 9.33301C57.6904 8.63314 58.2316 8.08382 58.9233 7.68506C59.6232 7.2863 60.4085 7.08691 61.2793 7.08691C61.4909 7.08691 61.7594 7.11947 62.085 7.18457C62.4186 7.24154 62.7441 7.32292 63.0615 7.42871H66.3452C66.4998 7.42871 66.6219 7.4694 66.7114 7.55078C66.8009 7.63216 66.8457 7.75016 66.8457 7.90479V9.12549C66.8457 9.2557 66.7969 9.36963 66.6992 9.46729C66.6097 9.5568 66.4917 9.60156 66.3452 9.60156H65.2466C65.686 10.2689 65.9058 10.9769 65.9058 11.7256C65.9139 12.5882 65.7145 13.3654 65.3076 14.0571C64.9089 14.7489 64.3555 15.29 63.6475 15.6807C62.9395 16.0713 62.1419 16.2666 61.2549 16.2666C60.5876 16.2666 59.9487 16.1323 59.3384 15.8638C59.1756 15.937 59.0454 16.0469 58.9478 16.1934C58.8582 16.3398 58.8135 16.5107 58.8135 16.7061C58.8135 16.9339 58.9274 17.1211 59.1553 17.2676C59.3913 17.4059 59.6924 17.4751 60.0586 17.4751H63.2324ZM61.2915 9.54053C60.9009 9.54053 60.5428 9.63818 60.2173 9.8335C59.8999 10.0207 59.6476 10.2811 59.4604 10.6147C59.2733 10.9403 59.1797 11.3024 59.1797 11.7012C59.1797 12.0918 59.2692 12.4499 59.4482 12.7754C59.6354 13.0928 59.8877 13.3451 60.2051 13.5322C60.5306 13.7194 60.8887 13.813 61.2793 13.813C61.6862 13.813 62.0524 13.7235 62.3779 13.5444C62.7116 13.3573 62.972 13.105 63.1592 12.7876C63.3545 12.4621 63.4521 12.104 63.4521 11.7134C63.4521 11.3065 63.3545 10.9403 63.1592 10.6147C62.972 10.2811 62.7116 10.0207 62.3779 9.8335C62.0524 9.63818 61.6903 9.54053 61.2915 9.54053ZM73.291 7.7583C73.291 7.53857 73.4009 7.42871 73.6206 7.42871H74.8169V4.41357C74.8169 4.21826 74.9105 4.08805 75.0977 4.02295L77.0874 3.2417C77.1525 3.22542 77.1973 3.21729 77.2217 3.21729C77.3031 3.21729 77.3641 3.24577 77.4048 3.30273C77.4536 3.3597 77.478 3.43701 77.478 3.53467V7.42871H80.0049C80.2246 7.42871 80.3345 7.53857 80.3345 7.7583V9.62598C80.3345 9.8457 80.2246 9.95557 80.0049 9.95557H77.478V17.6948C77.478 17.9146 77.3722 18.0244 77.1606 18.0244H75.1587C75.0529 18.0244 74.9715 17.9959 74.9146 17.939C74.8576 17.882 74.8291 17.8006 74.8291 17.6948V9.95557H73.6206C73.4009 9.95557 73.291 9.8457 73.291 9.62598V7.7583ZM86.3281 7.11133C87.3454 7.11133 88.265 7.36361 89.0869 7.86816C89.9089 8.37272 90.5436 9.05632 90.9912 9.91895C91.4469 10.7734 91.6667 11.7093 91.6504 12.7266C91.6423 13.0684 91.5283 13.3369 91.3086 13.5322C91.0889 13.7194 90.8285 13.813 90.5273 13.813H83.5938C83.8135 14.4315 84.1797 14.9401 84.6924 15.3389C85.2132 15.7295 85.7992 15.9248 86.4502 15.9248C87.1501 15.9248 87.8988 15.6481 88.6963 15.0947C88.7858 15.0459 88.8631 15.0215 88.9282 15.0215C89.0177 15.0215 89.0991 15.0703 89.1724 15.168L89.5996 15.7661C89.7949 16.0265 89.9536 16.2463 90.0757 16.4253C90.1245 16.5067 90.1489 16.5881 90.1489 16.6694C90.1489 16.7671 90.1082 16.8525 90.0269 16.9258C88.9364 17.8617 87.7319 18.3296 86.4136 18.3296C85.38 18.3296 84.4279 18.0773 83.5571 17.5728C82.6945 17.0682 82.0068 16.3887 81.4941 15.5342C80.9896 14.6715 80.7373 13.7316 80.7373 12.7144C80.7373 11.689 80.9814 10.749 81.4697 9.89453C81.9661 9.04004 82.6416 8.36458 83.4961 7.86816C84.3506 7.36361 85.2946 7.11133 86.3281 7.11133ZM86.3037 9.69922C85.612 9.69922 85.0098 9.89453 84.4971 10.2852C83.9844 10.6676 83.6507 11.1763 83.4961 11.811H88.9038C88.7573 11.1763 88.4562 10.6676 88.0005 10.2852C87.5448 9.89453 86.9792 9.69922 86.3037 9.69922ZM97.6685 9.52832C97.2453 9.52832 96.9157 9.60563 96.6797 9.76025C96.4518 9.90674 96.3379 10.1102 96.3379 10.3706C96.3379 10.5415 96.3867 10.688 96.4844 10.8101C96.5902 10.924 96.7814 11.0379 97.0581 11.1519C97.3348 11.2576 97.7458 11.3797 98.291 11.5181C99.1455 11.7297 99.8494 11.986 100.403 12.2871C100.964 12.5801 101.392 12.9585 101.685 13.4224C101.986 13.8862 102.136 14.464 102.136 15.1558C102.136 16.1893 101.75 16.9787 100.977 17.5239C100.203 18.0692 99.1496 18.3418 97.8149 18.3418C96.993 18.3418 96.1955 18.2157 95.4224 17.9634C94.6493 17.703 93.9901 17.4181 93.4448 17.1089C93.2821 17.0194 93.2007 16.9054 93.2007 16.7671C93.2007 16.6776 93.2292 16.5921 93.2861 16.5107L94.0674 15.1313C94.1569 14.9849 94.2708 14.9116 94.4092 14.9116C94.4906 14.9116 94.5801 14.936 94.6777 14.9849C95.8252 15.5789 96.8709 15.876 97.8149 15.876C98.4009 15.876 98.8444 15.8109 99.1455 15.6807C99.4466 15.5505 99.5972 15.3348 99.5972 15.0337C99.5972 14.7407 99.4425 14.5047 99.1333 14.3257C98.8241 14.1385 98.3317 13.9595 97.6562 13.7886C96.7773 13.5688 96.0653 13.3206 95.52 13.0439C94.9748 12.7673 94.5557 12.401 94.2627 11.9453C93.9779 11.4896 93.8354 10.9077 93.8354 10.1997C93.8354 9.64632 93.986 9.13363 94.2871 8.66162C94.5882 8.18148 95.0277 7.79899 95.6055 7.51416C96.1833 7.22119 96.8709 7.07471 97.6685 7.07471C98.3683 7.07471 99.0641 7.1805 99.7559 7.39209C100.456 7.60368 101.046 7.85189 101.526 8.13672C101.705 8.23438 101.794 8.35645 101.794 8.50293C101.794 8.58431 101.766 8.66976 101.709 8.75928L100.916 10.0898C100.818 10.2526 100.7 10.334 100.562 10.334C100.537 10.334 100.492 10.3258 100.427 10.3096C100.028 10.098 99.5809 9.91488 99.0845 9.76025C98.5881 9.60563 98.116 9.52832 97.6685 9.52832ZM103.271 7.7583C103.271 7.53857 103.381 7.42871 103.601 7.42871H104.797V4.41357C104.797 4.21826 104.891 4.08805 105.078 4.02295L107.068 3.2417C107.133 3.22542 107.178 3.21729 107.202 3.21729C107.284 3.21729 107.345 3.24577 107.385 3.30273C107.434 3.3597 107.458 3.43701 107.458 3.53467V7.42871H109.985C110.205 7.42871 110.315 7.53857 110.315 7.7583V9.62598C110.315 9.8457 110.205 9.95557 109.985 9.95557H107.458V17.6948C107.458 17.9146 107.353 18.0244 107.141 18.0244H105.139C105.033 18.0244 104.952 17.9959 104.895 17.939C104.838 17.882 104.81 17.8006 104.81 17.6948V9.95557H103.601C103.381 9.95557 103.271 9.8457 103.271 9.62598V7.7583Z" fill="black"/>
</svg>
