<svg width="112" height="24" viewBox="0 0 112 24" fill="none" xmlns="http://www.w3.org/2000/svg">
<path d="M8.61816 14.9116C8.69954 14.8709 8.77279 14.8506 8.83789 14.8506C8.95182 14.8506 9.04134 14.8953 9.10645 14.9849L10.0952 16.4375C10.1522 16.5026 10.1807 16.5758 10.1807 16.6572C10.1807 16.763 10.1278 16.8566 10.022 16.938C9.50928 17.3774 8.93555 17.7192 8.30078 17.9634C7.67415 18.2075 7.01497 18.3296 6.32324 18.3296C5.29785 18.3296 4.34977 18.0773 3.479 17.5728C2.61637 17.0682 1.92871 16.3887 1.41602 15.5342C0.911458 14.6715 0.65918 13.7316 0.65918 12.7144C0.65918 11.6971 0.911458 10.7612 1.41602 9.90674C1.92057 9.04411 2.60417 8.36458 3.4668 7.86816C4.33757 7.36361 5.28564 7.11133 6.31104 7.11133C7.0109 7.11133 7.68229 7.2334 8.3252 7.47754C8.9681 7.71354 9.54183 8.0472 10.0464 8.47852C10.1359 8.5599 10.1807 8.64535 10.1807 8.73486C10.1807 8.81624 10.1522 8.89762 10.0952 8.979L9.11865 10.4683C9.04541 10.5741 8.95589 10.627 8.8501 10.627C8.77686 10.627 8.70361 10.6025 8.63037 10.5537C7.91423 9.97591 7.15332 9.68701 6.34766 9.68701C5.80241 9.68701 5.30192 9.82129 4.84619 10.0898C4.39046 10.3584 4.02832 10.7246 3.75977 11.1885C3.49935 11.6523 3.36914 12.1569 3.36914 12.7021C3.36914 13.2474 3.50342 13.756 3.77197 14.228C4.04053 14.6919 4.40267 15.0622 4.8584 15.3389C5.31413 15.6156 5.81462 15.7539 6.35986 15.7539C7.19808 15.7539 7.95085 15.4731 8.61816 14.9116ZM11.4502 12.7266C11.4502 11.7012 11.7025 10.7612 12.207 9.90674C12.7197 9.04411 13.4115 8.36458 14.2822 7.86816C15.153 7.36361 16.1092 7.11133 17.1509 7.11133C18.1844 7.11133 19.1366 7.36361 20.0073 7.86816C20.8781 8.36458 21.5658 9.04411 22.0703 9.90674C22.5749 10.7612 22.8271 11.7012 22.8271 12.7266C22.8271 13.752 22.5708 14.6919 22.0581 15.5464C21.5535 16.4009 20.8659 17.0804 19.9951 17.585C19.1325 18.0814 18.1844 18.3296 17.1509 18.3296C16.1092 18.3296 15.153 18.0814 14.2822 17.585C13.4115 17.0885 12.7197 16.4131 12.207 15.5586C11.7025 14.696 11.4502 13.752 11.4502 12.7266ZM14.1113 12.7266C14.1113 13.2718 14.2456 13.7764 14.5142 14.2402C14.7827 14.7041 15.1489 15.0744 15.6128 15.3511C16.0767 15.6196 16.5853 15.7539 17.1387 15.7539C17.6921 15.7539 18.2007 15.6196 18.6646 15.3511C19.1366 15.0744 19.5068 14.7082 19.7754 14.2524C20.0439 13.7886 20.1782 13.2799 20.1782 12.7266C20.1782 12.1732 20.0439 11.6646 19.7754 11.2007C19.5068 10.7287 19.1366 10.3584 18.6646 10.0898C18.2007 9.81315 17.6921 9.6748 17.1387 9.6748C16.5853 9.6748 16.0767 9.81315 15.6128 10.0898C15.1489 10.3584 14.7827 10.7287 14.5142 11.2007C14.2456 11.6646 14.1113 12.1732 14.1113 12.7266ZM37.3047 7.09912C38.1266 7.09912 38.8306 7.29036 39.4165 7.67285C40.0024 8.0472 40.446 8.59652 40.7471 9.3208C41.0563 10.0369 41.2109 10.8955 41.2109 11.8965V17.6582C41.2109 17.7721 41.1784 17.8617 41.1133 17.9268C41.0563 17.9837 40.9749 18.0122 40.8691 18.0122H38.9038C38.798 18.0122 38.7126 17.9797 38.6475 17.9146C38.5824 17.8494 38.5498 17.764 38.5498 17.6582V11.8721C38.5498 11.4326 38.4644 11.042 38.2935 10.7002C38.1307 10.3584 37.9028 10.098 37.6099 9.91895C37.3169 9.73177 36.9873 9.63818 36.6211 9.63818C36.1898 9.63818 35.8032 9.73584 35.4614 9.93115C35.1278 10.1183 34.8633 10.391 34.668 10.749C34.4808 11.099 34.3872 11.5099 34.3872 11.9819V17.6582C34.3872 17.764 34.3547 17.8494 34.2896 17.9146C34.2326 17.9797 34.1471 18.0122 34.0332 18.0122H32.0801C31.9743 18.0122 31.8888 17.9797 31.8237 17.9146C31.7586 17.8494 31.7261 17.764 31.7261 17.6582V11.8721C31.7261 11.4245 31.6406 11.0339 31.4697 10.7002C31.307 10.3584 31.0791 10.098 30.7861 9.91895C30.4932 9.73177 30.1595 9.63818 29.7852 9.63818C29.362 9.63818 28.9836 9.74398 28.6499 9.95557C28.3162 10.159 28.0558 10.4438 27.8687 10.8101C27.6896 11.1763 27.6001 11.5954 27.6001 12.0674V17.6582C27.6001 17.8942 27.4862 18.0122 27.2583 18.0122H25.3052C25.0773 18.0122 24.9634 17.8942 24.9634 17.6582V7.7583C24.9634 7.65251 24.9919 7.57113 25.0488 7.51416C25.1139 7.44906 25.2035 7.4165 25.3174 7.4165H26.8677C27.063 7.4165 27.1769 7.48975 27.2095 7.63623L27.417 8.72266C27.7669 8.20996 28.2064 7.8112 28.7354 7.52637C29.2643 7.24154 29.8421 7.09912 30.4688 7.09912C31.2663 7.09912 31.9539 7.27816 32.5317 7.63623C33.1177 7.9943 33.5653 8.51514 33.8745 9.19873C34.1838 8.54769 34.6436 8.03499 35.2539 7.66064C35.8724 7.2863 36.556 7.09912 37.3047 7.09912ZM56.3232 7.09912C57.1452 7.09912 57.8491 7.29036 58.4351 7.67285C59.021 8.0472 59.4645 8.59652 59.7656 9.3208C60.0749 10.0369 60.2295 10.8955 60.2295 11.8965V17.6582C60.2295 17.7721 60.1969 17.8617 60.1318 17.9268C60.0749 17.9837 59.9935 18.0122 59.8877 18.0122H57.9224C57.8166 18.0122 57.7311 17.9797 57.666 17.9146C57.6009 17.8494 57.5684 17.764 57.5684 17.6582V11.8721C57.5684 11.4326 57.4829 11.042 57.312 10.7002C57.1493 10.3584 56.9214 10.098 56.6284 9.91895C56.3354 9.73177 56.0059 9.63818 55.6396 9.63818C55.2083 9.63818 54.8218 9.73584 54.48 9.93115C54.1463 10.1183 53.8818 10.391 53.6865 10.749C53.4993 11.099 53.4058 11.5099 53.4058 11.9819V17.6582C53.4058 17.764 53.3732 17.8494 53.3081 17.9146C53.2511 17.9797 53.1657 18.0122 53.0518 18.0122H51.0986C50.9928 18.0122 50.9074 17.9797 50.8423 17.9146C50.7772 17.8494 50.7446 17.764 50.7446 17.6582V11.8721C50.7446 11.4245 50.6592 11.0339 50.4883 10.7002C50.3255 10.3584 50.0977 10.098 49.8047 9.91895C49.5117 9.73177 49.1781 9.63818 48.8037 9.63818C48.3805 9.63818 48.0021 9.74398 47.6685 9.95557C47.3348 10.159 47.0744 10.4438 46.8872 10.8101C46.7082 11.1763 46.6187 11.5954 46.6187 12.0674V17.6582C46.6187 17.8942 46.5047 18.0122 46.2769 18.0122H44.3237C44.0959 18.0122 43.9819 17.8942 43.9819 17.6582V7.7583C43.9819 7.65251 44.0104 7.57113 44.0674 7.51416C44.1325 7.44906 44.222 7.4165 44.3359 7.4165H45.8862C46.0815 7.4165 46.1955 7.48975 46.228 7.63623L46.4355 8.72266C46.7855 8.20996 47.2249 7.8112 47.7539 7.52637C48.2829 7.24154 48.8607 7.09912 49.4873 7.09912C50.2848 7.09912 50.9725 7.27816 51.5503 7.63623C52.1362 7.9943 52.5838 8.51514 52.8931 9.19873C53.2023 8.54769 53.6621 8.03499 54.2725 7.66064C54.891 7.2863 55.5745 7.09912 56.3232 7.09912ZM72.5098 7.42871C72.7376 7.42871 72.8516 7.54671 72.8516 7.78271V17.6826C72.8516 17.7884 72.819 17.8739 72.7539 17.939C72.6969 17.9959 72.6115 18.0244 72.4976 18.0244H70.9351C70.7479 18.0244 70.638 17.9471 70.6055 17.7925L70.3979 16.7061C70.0073 17.2188 69.519 17.6216 68.9331 17.9146C68.3553 18.2075 67.7327 18.354 67.0654 18.354C66.1947 18.354 65.4378 18.1587 64.7949 17.7681C64.152 17.3774 63.6597 16.82 63.3179 16.0957C62.9761 15.3714 62.8052 14.521 62.8052 13.5444V7.79492C62.8052 7.68099 62.8377 7.59554 62.9028 7.53857C62.9679 7.47347 63.0534 7.44092 63.1592 7.44092H65.1123C65.2262 7.44092 65.3117 7.47347 65.3687 7.53857C65.4338 7.59554 65.4663 7.68099 65.4663 7.79492V13.5688C65.4663 13.9839 65.568 14.3623 65.7715 14.7041C65.9831 15.0459 66.2638 15.3185 66.6138 15.522C66.9718 15.7173 67.3584 15.8149 67.7734 15.8149C68.2129 15.8149 68.6157 15.7132 68.9819 15.5098C69.3563 15.2982 69.6533 15.0093 69.873 14.6431C70.0928 14.2687 70.2026 13.8496 70.2026 13.3857V7.78271C70.2026 7.54671 70.3166 7.42871 70.5444 7.42871H72.5098ZM81.604 7.08691C82.4748 7.08691 83.2316 7.28223 83.8745 7.67285C84.5174 8.06348 85.0098 8.62093 85.3516 9.34521C85.6934 10.0695 85.8643 10.9159 85.8643 11.8843V17.646C85.8643 17.7518 85.8317 17.8372 85.7666 17.9023C85.7096 17.9593 85.6242 17.9878 85.5103 17.9878H83.5571C83.4432 17.9878 83.3537 17.9593 83.2886 17.9023C83.2316 17.8372 83.2031 17.7518 83.2031 17.646V11.8721C83.2031 11.457 83.0973 11.0786 82.8857 10.7368C82.6823 10.3869 82.4015 10.1143 82.0435 9.91895C81.6935 9.72363 81.311 9.62598 80.896 9.62598C80.4565 9.62598 80.0496 9.73177 79.6753 9.94336C79.3009 10.1468 79.0039 10.4357 78.7842 10.8101C78.5645 11.1763 78.4546 11.5872 78.4546 12.043V17.6582C78.4546 17.8942 78.3407 18.0122 78.1128 18.0122H76.1597C75.9318 18.0122 75.8179 17.8942 75.8179 17.6582V7.7583C75.8179 7.65251 75.8464 7.57113 75.9033 7.51416C75.9684 7.44906 76.0579 7.4165 76.1719 7.4165H77.7222C77.9175 7.4165 78.0314 7.48975 78.064 7.63623L78.2715 8.73486C78.6621 8.22217 79.1463 7.81934 79.7241 7.52637C80.3101 7.2334 80.9367 7.08691 81.604 7.08691ZM89.9658 4.21826C89.6729 4.21826 89.4002 4.14502 89.1479 3.99854C88.8957 3.85205 88.6922 3.65674 88.5376 3.4126C88.3911 3.16032 88.3179 2.8877 88.3179 2.59473C88.3179 2.30176 88.3911 2.02913 88.5376 1.77686C88.6922 1.52458 88.8957 1.3252 89.1479 1.17871C89.4002 1.03223 89.6729 0.958984 89.9658 0.958984C90.2588 0.958984 90.5314 1.03223 90.7837 1.17871C91.036 1.3252 91.2354 1.52458 91.3818 1.77686C91.5283 2.02913 91.6016 2.30176 91.6016 2.59473C91.6016 2.8877 91.5283 3.16032 91.3818 3.4126C91.2354 3.65674 91.036 3.85205 90.7837 3.99854C90.5314 4.14502 90.2588 4.21826 89.9658 4.21826ZM90.9424 7.4165C91.0482 7.4165 91.1296 7.44499 91.1865 7.50195C91.2516 7.55892 91.2842 7.6403 91.2842 7.74609V17.6826C91.2842 17.7884 91.2516 17.8698 91.1865 17.9268C91.1296 17.9837 91.0482 18.0122 90.9424 18.0122H88.9648C88.7451 18.0122 88.6353 17.9023 88.6353 17.6826V7.74609C88.6353 7.52637 88.7451 7.4165 88.9648 7.4165H90.9424ZM93.0176 7.7583C93.0176 7.53857 93.1274 7.42871 93.3472 7.42871H94.5435V4.41357C94.5435 4.21826 94.637 4.08805 94.8242 4.02295L96.814 3.2417C96.8791 3.22542 96.9238 3.21729 96.9482 3.21729C97.0296 3.21729 97.0907 3.24577 97.1313 3.30273C97.1802 3.3597 97.2046 3.43701 97.2046 3.53467V7.42871H99.7314C99.9512 7.42871 100.061 7.53857 100.061 7.7583V9.62598C100.061 9.8457 99.9512 9.95557 99.7314 9.95557H97.2046V17.6948C97.2046 17.9146 97.0988 18.0244 96.8872 18.0244H94.8853C94.7795 18.0244 94.6981 17.9959 94.6411 17.939C94.5841 17.882 94.5557 17.8006 94.5557 17.6948V9.95557H93.3472C93.1274 9.95557 93.0176 9.8457 93.0176 9.62598V7.7583ZM111.523 7.4165C111.605 7.4165 111.674 7.44092 111.731 7.48975C111.788 7.53857 111.816 7.60368 111.816 7.68506C111.816 7.73389 111.804 7.78271 111.78 7.83154L107.568 17.7192L107.532 17.7803L105.371 22.9194C105.29 23.1229 105.151 23.2246 104.956 23.2246H103.137C102.861 23.2246 102.722 23.127 102.722 22.9316C102.722 22.8747 102.743 22.7852 102.783 22.6631L104.993 17.3042L100.952 7.83154C100.928 7.78271 100.916 7.73389 100.916 7.68506C100.916 7.60368 100.944 7.53857 101.001 7.48975C101.058 7.44092 101.127 7.4165 101.208 7.4165H103.333C103.438 7.4165 103.532 7.44499 103.613 7.50195C103.695 7.55892 103.752 7.63216 103.784 7.72168L106.372 14.6797L108.948 7.72168C108.98 7.63216 109.037 7.55892 109.119 7.50195C109.2 7.44499 109.294 7.4165 109.399 7.4165H111.523Z" fill="black"/>
</svg>
