<svg width="52" height="12" viewBox="0 0 52 12" fill="none" xmlns="http://www.w3.org/2000/svg">
<path d="M12.8184 0.0991211C13.6403 0.0991211 14.3442 0.290365 14.9302 0.672852C15.5161 1.0472 15.9596 1.59652 16.2607 2.3208C16.57 3.03695 16.7246 3.89551 16.7246 4.89648V10.6582C16.7246 10.7721 16.6921 10.8617 16.627 10.9268C16.57 10.9837 16.4886 11.0122 16.3828 11.0122H14.4175C14.3117 11.0122 14.2262 10.9797 14.1611 10.9146C14.096 10.8494 14.0635 10.764 14.0635 10.6582V4.87207C14.0635 4.43262 13.978 4.04199 13.8071 3.7002C13.6444 3.3584 13.4165 3.09798 13.1235 2.91895C12.8306 2.73177 12.501 2.63818 12.1348 2.63818C11.7035 2.63818 11.3169 2.73584 10.9751 2.93115C10.6414 3.11833 10.377 3.39095 10.1816 3.74902C9.99447 4.09896 9.90088 4.50993 9.90088 4.98193V10.6582C9.90088 10.764 9.86833 10.8494 9.80322 10.9146C9.74626 10.9797 9.66081 11.0122 9.54688 11.0122H7.59375C7.48796 11.0122 7.40251 10.9797 7.3374 10.9146C7.2723 10.8494 7.23975 10.764 7.23975 10.6582V4.87207C7.23975 4.42448 7.1543 4.03385 6.9834 3.7002C6.82064 3.3584 6.59277 3.09798 6.2998 2.91895C6.00684 2.73177 5.67318 2.63818 5.29883 2.63818C4.87565 2.63818 4.49723 2.74398 4.16357 2.95557C3.82992 3.15902 3.5695 3.44385 3.38232 3.81006C3.20329 4.17627 3.11377 4.59538 3.11377 5.06738V10.6582C3.11377 10.8942 2.99984 11.0122 2.77197 11.0122H0.818848C0.590983 11.0122 0.477051 10.8942 0.477051 10.6582V0.758301C0.477051 0.652507 0.505534 0.571126 0.5625 0.51416C0.627604 0.449056 0.717122 0.416504 0.831055 0.416504H2.38135C2.57666 0.416504 2.69059 0.489746 2.72314 0.63623L2.93066 1.72266C3.2806 1.20996 3.72005 0.811198 4.24902 0.526367C4.77799 0.241536 5.35579 0.0991211 5.98242 0.0991211C6.77995 0.0991211 7.46761 0.278158 8.04541 0.63623C8.63135 0.994303 9.07894 1.51514 9.38818 2.19873C9.69743 1.54769 10.1572 1.03499 10.7676 0.660645C11.3861 0.286296 12.0697 0.0991211 12.8184 0.0991211ZM18.6777 5.72656C18.6777 4.70117 18.93 3.76123 19.4346 2.90674C19.9473 2.04411 20.639 1.36458 21.5098 0.868164C22.3805 0.363607 23.3368 0.111328 24.3784 0.111328C25.4119 0.111328 26.3641 0.363607 27.2349 0.868164C28.1056 1.36458 28.7933 2.04411 29.2979 2.90674C29.8024 3.76123 30.0547 4.70117 30.0547 5.72656C30.0547 6.75195 29.7983 7.69189 29.2856 8.54639C28.7811 9.40088 28.0934 10.0804 27.2227 10.585C26.36 11.0814 25.4119 11.3296 24.3784 11.3296C23.3368 11.3296 22.3805 11.0814 21.5098 10.585C20.639 10.0885 19.9473 9.41309 19.4346 8.55859C18.93 7.69596 18.6777 6.75195 18.6777 5.72656ZM21.3389 5.72656C21.3389 6.27181 21.4731 6.77637 21.7417 7.24023C22.0103 7.7041 22.3765 8.07438 22.8403 8.35107C23.3042 8.61963 23.8128 8.75391 24.3662 8.75391C24.9196 8.75391 25.4282 8.61963 25.8921 8.35107C26.3641 8.07438 26.7344 7.70817 27.0029 7.25244C27.2715 6.78857 27.4058 6.27995 27.4058 5.72656C27.4058 5.17318 27.2715 4.66455 27.0029 4.20068C26.7344 3.72868 26.3641 3.3584 25.8921 3.08984C25.4282 2.81315 24.9196 2.6748 24.3662 2.6748C23.8128 2.6748 23.3042 2.81315 22.8403 3.08984C22.3765 3.3584 22.0103 3.72868 21.7417 4.20068C21.4731 4.66455 21.3389 5.17318 21.3389 5.72656ZM40.5771 1.07568C40.6585 1.13265 40.6992 1.20996 40.6992 1.30762C40.6992 1.38086 40.6748 1.4541 40.626 1.52734L39.7104 2.94336C39.6535 3.04915 39.564 3.10205 39.4419 3.10205C39.3687 3.10205 39.3117 3.08171 39.271 3.04102L39.1855 2.96777C38.9577 2.78874 38.6932 2.65446 38.3921 2.56494C38.091 2.47542 37.798 2.43066 37.5132 2.43066C37.0249 2.43066 36.5732 2.54867 36.1582 2.78467C35.7513 3.01253 35.4258 3.32585 35.1816 3.72461C34.9456 4.12337 34.8276 4.55876 34.8276 5.03076V10.6582C34.8276 10.8942 34.7137 11.0122 34.4858 11.0122H32.5327C32.3049 11.0122 32.1909 10.8942 32.1909 10.6582V0.758301C32.1909 0.652507 32.2194 0.571126 32.2764 0.51416C32.3415 0.449056 32.431 0.416504 32.5449 0.416504H34.0952C34.2905 0.416504 34.4045 0.489746 34.437 0.63623L34.6567 1.83252C35.0311 1.29541 35.5072 0.872233 36.085 0.562988C36.6709 0.245605 37.2812 0.0869141 37.916 0.0869141C38.4368 0.0869141 38.9292 0.172363 39.3931 0.343262C39.8651 0.51416 40.2598 0.758301 40.5771 1.07568ZM46.5342 0.111328C47.5514 0.111328 48.471 0.363607 49.293 0.868164C50.1149 1.37272 50.7497 2.05632 51.1973 2.91895C51.653 3.77344 51.8727 4.70931 51.8564 5.72656C51.8483 6.06836 51.7344 6.33691 51.5146 6.53223C51.2949 6.7194 51.0345 6.81299 50.7334 6.81299H43.7998C44.0195 7.43148 44.3857 7.9401 44.8984 8.33887C45.4193 8.72949 46.0052 8.9248 46.6562 8.9248C47.3561 8.9248 48.1048 8.64811 48.9023 8.09473C48.9919 8.0459 49.0692 8.02148 49.1343 8.02148C49.2238 8.02148 49.3052 8.07031 49.3784 8.16797L49.8057 8.76611C50.001 9.02653 50.1597 9.24626 50.2817 9.42529C50.3306 9.50667 50.355 9.58805 50.355 9.66943C50.355 9.76709 50.3143 9.85254 50.2329 9.92578C49.1424 10.8617 47.938 11.3296 46.6196 11.3296C45.5861 11.3296 44.634 11.0773 43.7632 10.5728C42.9006 10.0682 42.2129 9.38867 41.7002 8.53418C41.1956 7.67155 40.9434 6.73161 40.9434 5.71436C40.9434 4.68896 41.1875 3.74902 41.6758 2.89453C42.1722 2.04004 42.8477 1.36458 43.7021 0.868164C44.5566 0.363607 45.5007 0.111328 46.5342 0.111328ZM46.5098 2.69922C45.818 2.69922 45.2158 2.89453 44.7031 3.28516C44.1904 3.66764 43.8568 4.17627 43.7021 4.81104H49.1099C48.9634 4.17627 48.6623 3.66764 48.2065 3.28516C47.7508 2.89453 47.1852 2.69922 46.5098 2.69922Z" fill="black"/>
</svg>
