<svg width="59" height="19" viewBox="0 0 59 19" fill="none" xmlns="http://www.w3.org/2000/svg">
<path d="M5.82275 7.09912C6.79118 7.09912 7.63753 7.26595 8.36182 7.59961C9.09424 7.93327 9.65983 8.40934 10.0586 9.02783C10.4655 9.64632 10.6689 10.3747 10.6689 11.2129V17.646C10.6689 17.7599 10.6364 17.8494 10.5713 17.9146C10.5143 17.9797 10.4329 18.0122 10.3271 18.0122H8.83789C8.77279 18.0122 8.71175 17.9919 8.65479 17.9512C8.60596 17.9105 8.5734 17.8617 8.55713 17.8047L8.37402 16.7305C7.99967 17.2269 7.50326 17.6216 6.88477 17.9146C6.26628 18.1994 5.52165 18.3418 4.65088 18.3418C3.89404 18.3418 3.21859 18.2035 2.62451 17.9268C2.03857 17.6501 1.57878 17.2554 1.24512 16.7427C0.919596 16.23 0.756836 15.6318 0.756836 14.9482C0.756836 13.9554 1.07422 13.2067 1.70898 12.7021C2.34375 12.1976 3.243 11.9412 4.40674 11.9331L8.02002 11.9209V11.4082C8.02002 10.7653 7.8125 10.2567 7.39746 9.88232C6.98242 9.49984 6.45345 9.30859 5.81055 9.30859C5.30599 9.30859 4.78923 9.36963 4.26025 9.4917C3.73942 9.60563 3.29183 9.76839 2.91748 9.97998C2.80355 10.0288 2.70182 10.0532 2.6123 10.0532C2.44141 10.0532 2.33154 9.99219 2.28271 9.87012L1.69678 8.73486C1.66423 8.66976 1.64795 8.59652 1.64795 8.51514C1.64795 8.31982 1.76595 8.15706 2.00195 8.02686C2.4821 7.73389 3.06803 7.50602 3.75977 7.34326C4.45964 7.1805 5.1473 7.09912 5.82275 7.09912ZM5.39551 16.2178C5.86751 16.2178 6.3029 16.1201 6.70166 15.9248C7.10856 15.7295 7.43001 15.4609 7.66602 15.1191C7.90202 14.7773 8.02002 14.3989 8.02002 13.9839V13.7153H4.76074C4.32943 13.7153 3.99577 13.813 3.75977 14.0083C3.52376 14.1955 3.40576 14.46 3.40576 14.8018C3.40576 15.2168 3.59701 15.5586 3.97949 15.8271C4.36198 16.0876 4.83398 16.2178 5.39551 16.2178ZM19.6655 7.11133C20.634 7.11133 21.5047 7.35547 22.2778 7.84375C23.0509 8.32389 23.6532 8.99121 24.0845 9.8457C24.5239 10.7002 24.7437 11.6564 24.7437 12.7144C24.7437 13.7723 24.5239 14.7285 24.0845 15.583C23.645 16.4375 23.0387 17.1089 22.2656 17.5972C21.4925 18.0854 20.6217 18.3296 19.6533 18.3296C18.8721 18.3296 18.1559 18.1628 17.5049 17.8291C16.862 17.4873 16.3249 17.0031 15.8936 16.3765L15.6616 17.8169C15.6535 17.8739 15.6209 17.9227 15.564 17.9634C15.5151 17.9959 15.4582 18.0122 15.3931 18.0122H13.7817C13.6759 18.0122 13.5905 17.9797 13.5254 17.9146C13.4684 17.8494 13.4399 17.7599 13.4399 17.646V0.507324C13.4399 0.40153 13.4684 0.316081 13.5254 0.250977C13.5905 0.185872 13.6759 0.15332 13.7817 0.15332H15.7471C15.8529 0.15332 15.9342 0.185872 15.9912 0.250977C16.0563 0.316081 16.0889 0.40153 16.0889 0.507324L16.0645 8.82031C16.4958 8.27507 17.0166 7.85596 17.627 7.56299C18.2454 7.26188 18.925 7.11133 19.6655 7.11133ZM19.165 15.7661C19.7103 15.7661 20.2108 15.6318 20.6665 15.3633C21.1304 15.0866 21.4966 14.7163 21.7651 14.2524C22.0337 13.7804 22.168 13.2637 22.168 12.7021C22.168 12.1569 22.0337 11.6523 21.7651 11.1885C21.4966 10.7246 21.1344 10.3584 20.6787 10.0898C20.223 9.82129 19.7225 9.68701 19.1772 9.68701C18.6157 9.68701 18.099 9.82129 17.627 10.0898C17.1549 10.3584 16.7806 10.7246 16.5039 11.1885C16.2354 11.6442 16.1011 12.1488 16.1011 12.7021C16.1011 13.2637 16.2354 13.7804 16.5039 14.2524C16.7806 14.7163 17.1509 15.0866 17.6147 15.3633C18.0868 15.6318 18.6035 15.7661 19.165 15.7661ZM26.0742 12.7266C26.0742 11.7012 26.3265 10.7612 26.8311 9.90674C27.3438 9.04411 28.0355 8.36458 28.9062 7.86816C29.777 7.36361 30.7332 7.11133 31.7749 7.11133C32.8084 7.11133 33.7606 7.36361 34.6313 7.86816C35.5021 8.36458 36.1898 9.04411 36.6943 9.90674C37.1989 10.7612 37.4512 11.7012 37.4512 12.7266C37.4512 13.752 37.1948 14.6919 36.6821 15.5464C36.1776 16.4009 35.4899 17.0804 34.6191 17.585C33.7565 18.0814 32.8084 18.3296 31.7749 18.3296C30.7332 18.3296 29.777 18.0814 28.9062 17.585C28.0355 17.0885 27.3438 16.4131 26.8311 15.5586C26.3265 14.696 26.0742 13.752 26.0742 12.7266ZM28.7354 12.7266C28.7354 13.2718 28.8696 13.7764 29.1382 14.2402C29.4067 14.7041 29.7729 15.0744 30.2368 15.3511C30.7007 15.6196 31.2093 15.7539 31.7627 15.7539C32.3161 15.7539 32.8247 15.6196 33.2886 15.3511C33.7606 15.0744 34.1309 14.7082 34.3994 14.2524C34.668 13.7886 34.8022 13.2799 34.8022 12.7266C34.8022 12.1732 34.668 11.6646 34.3994 11.2007C34.1309 10.7287 33.7606 10.3584 33.2886 10.0898C32.8247 9.81315 32.3161 9.6748 31.7627 9.6748C31.2093 9.6748 30.7007 9.81315 30.2368 10.0898C29.7729 10.3584 29.4067 10.7287 29.1382 11.2007C28.8696 11.6646 28.7354 12.1732 28.7354 12.7266ZM49.0967 7.42871C49.3245 7.42871 49.4385 7.54671 49.4385 7.78271V17.6826C49.4385 17.7884 49.4059 17.8739 49.3408 17.939C49.2839 17.9959 49.1984 18.0244 49.0845 18.0244H47.522C47.3348 18.0244 47.2249 17.9471 47.1924 17.7925L46.9849 16.7061C46.5942 17.2188 46.106 17.6216 45.52 17.9146C44.9422 18.2075 44.3197 18.354 43.6523 18.354C42.7816 18.354 42.0247 18.1587 41.3818 17.7681C40.7389 17.3774 40.2466 16.82 39.9048 16.0957C39.563 15.3714 39.3921 14.521 39.3921 13.5444V7.79492C39.3921 7.68099 39.4246 7.59554 39.4897 7.53857C39.5549 7.47347 39.6403 7.44092 39.7461 7.44092H41.6992C41.8132 7.44092 41.8986 7.47347 41.9556 7.53857C42.0207 7.59554 42.0532 7.68099 42.0532 7.79492V13.5688C42.0532 13.9839 42.1549 14.3623 42.3584 14.7041C42.57 15.0459 42.8507 15.3185 43.2007 15.522C43.5588 15.7173 43.9453 15.8149 44.3604 15.8149C44.7998 15.8149 45.2026 15.7132 45.5688 15.5098C45.9432 15.2982 46.2402 15.0093 46.46 14.6431C46.6797 14.2687 46.7896 13.8496 46.7896 13.3857V7.78271C46.7896 7.54671 46.9035 7.42871 47.1313 7.42871H49.0967ZM51.1963 7.7583C51.1963 7.53857 51.3062 7.42871 51.5259 7.42871H52.7222V4.41357C52.7222 4.21826 52.8158 4.08805 53.0029 4.02295L54.9927 3.2417C55.0578 3.22542 55.1025 3.21729 55.127 3.21729C55.2083 3.21729 55.2694 3.24577 55.3101 3.30273C55.3589 3.3597 55.3833 3.43701 55.3833 3.53467V7.42871H57.9102C58.1299 7.42871 58.2397 7.53857 58.2397 7.7583V9.62598C58.2397 9.8457 58.1299 9.95557 57.9102 9.95557H55.3833V17.6948C55.3833 17.9146 55.2775 18.0244 55.0659 18.0244H53.064C52.9582 18.0244 52.8768 17.9959 52.8198 17.939C52.7629 17.882 52.7344 17.8006 52.7344 17.6948V9.95557H51.5259C51.3062 9.95557 51.1963 9.8457 51.1963 9.62598V7.7583Z" fill="black"/>
</svg>
