<svg width="21" height="12" viewBox="0 0 21 12" fill="none" xmlns="http://www.w3.org/2000/svg">
<path d="M8.61816 7.91162C8.69954 7.87093 8.77279 7.85059 8.83789 7.85059C8.95182 7.85059 9.04134 7.89535 9.10645 7.98486L10.0952 9.4375C10.1522 9.5026 10.1807 9.57585 10.1807 9.65723C10.1807 9.76302 10.1278 9.85661 10.022 9.93799C9.50928 10.3774 8.93555 10.7192 8.30078 10.9634C7.67415 11.2075 7.01497 11.3296 6.32324 11.3296C5.29785 11.3296 4.34977 11.0773 3.479 10.5728C2.61637 10.0682 1.92871 9.38867 1.41602 8.53418C0.911458 7.67155 0.65918 6.73161 0.65918 5.71436C0.65918 4.6971 0.911458 3.76123 1.41602 2.90674C1.92057 2.04411 2.60417 1.36458 3.4668 0.868164C4.33757 0.363607 5.28564 0.111328 6.31104 0.111328C7.0109 0.111328 7.68229 0.233398 8.3252 0.477539C8.9681 0.713542 9.54183 1.0472 10.0464 1.47852C10.1359 1.5599 10.1807 1.64535 10.1807 1.73486C10.1807 1.81624 10.1522 1.89762 10.0952 1.979L9.11865 3.46826C9.04541 3.57406 8.95589 3.62695 8.8501 3.62695C8.77686 3.62695 8.70361 3.60254 8.63037 3.55371C7.91423 2.97591 7.15332 2.68701 6.34766 2.68701C5.80241 2.68701 5.30192 2.82129 4.84619 3.08984C4.39046 3.3584 4.02832 3.72461 3.75977 4.18848C3.49935 4.65234 3.36914 5.1569 3.36914 5.70215C3.36914 6.2474 3.50342 6.75602 3.77197 7.22803C4.04053 7.69189 4.40267 8.06217 4.8584 8.33887C5.31413 8.61556 5.81462 8.75391 6.35986 8.75391C7.19808 8.75391 7.95085 8.47314 8.61816 7.91162ZM16.3696 2.52832C15.9465 2.52832 15.6169 2.60563 15.3809 2.76025C15.153 2.90674 15.0391 3.11019 15.0391 3.37061C15.0391 3.5415 15.0879 3.68799 15.1855 3.81006C15.2913 3.92399 15.4826 4.03792 15.7593 4.15186C16.036 4.25765 16.4469 4.37972 16.9922 4.51807C17.8467 4.72965 18.5506 4.986 19.104 5.28711C19.6655 5.58008 20.0928 5.9585 20.3857 6.42236C20.6868 6.88623 20.8374 7.46403 20.8374 8.15576C20.8374 9.18929 20.4508 9.97868 19.6777 10.5239C18.9046 11.0692 17.8507 11.3418 16.5161 11.3418C15.6942 11.3418 14.8966 11.2157 14.1235 10.9634C13.3504 10.703 12.6912 10.4181 12.146 10.1089C11.9832 10.0194 11.9019 9.90544 11.9019 9.76709C11.9019 9.67757 11.9303 9.59212 11.9873 9.51074L12.7686 8.13135C12.8581 7.98486 12.972 7.91162 13.1104 7.91162C13.1917 7.91162 13.2812 7.93604 13.3789 7.98486C14.5264 8.57894 15.5721 8.87598 16.5161 8.87598C17.1021 8.87598 17.5456 8.81087 17.8467 8.68066C18.1478 8.55046 18.2983 8.3348 18.2983 8.03369C18.2983 7.74072 18.1437 7.50472 17.8345 7.32568C17.5252 7.13851 17.0329 6.95947 16.3574 6.78857C15.4785 6.56885 14.7664 6.32064 14.2212 6.04395C13.6759 5.76725 13.2568 5.40104 12.9639 4.94531C12.679 4.48958 12.5366 3.90771 12.5366 3.19971C12.5366 2.64632 12.6872 2.13363 12.9883 1.66162C13.2894 1.18148 13.7288 0.798991 14.3066 0.51416C14.8844 0.221191 15.5721 0.074707 16.3696 0.074707C17.0695 0.074707 17.7653 0.180501 18.457 0.39209C19.1569 0.603678 19.7469 0.851888 20.2271 1.13672C20.4061 1.23438 20.4956 1.35645 20.4956 1.50293C20.4956 1.58431 20.4671 1.66976 20.4102 1.75928L19.6167 3.08984C19.519 3.2526 19.401 3.33398 19.2627 3.33398C19.2383 3.33398 19.1935 3.32585 19.1284 3.30957C18.7297 3.09798 18.2821 2.91488 17.7856 2.76025C17.2892 2.60563 16.8172 2.52832 16.3696 2.52832Z" fill="black"/>
</svg>
