<svg width="56" height="24" viewBox="0 0 56 24" fill="none" xmlns="http://www.w3.org/2000/svg">
<path d="M5.33447 9.52832C4.9113 9.52832 4.58171 9.60563 4.3457 9.76025C4.11784 9.90674 4.00391 10.1102 4.00391 10.3706C4.00391 10.5415 4.05273 10.688 4.15039 10.8101C4.25618 10.924 4.44743 11.0379 4.72412 11.1519C5.00081 11.2576 5.41178 11.3797 5.95703 11.5181C6.81152 11.7297 7.51546 11.986 8.06885 12.2871C8.63037 12.5801 9.05762 12.9585 9.35059 13.4224C9.65169 13.8862 9.80225 14.464 9.80225 15.1558C9.80225 16.1893 9.41569 16.9787 8.64258 17.5239C7.86947 18.0692 6.81559 18.3418 5.48096 18.3418C4.65902 18.3418 3.86149 18.2157 3.08838 17.9634C2.31527 17.703 1.65609 17.4181 1.11084 17.1089C0.948079 17.0194 0.866699 16.9054 0.866699 16.7671C0.866699 16.6776 0.895182 16.5921 0.952148 16.5107L1.7334 15.1313C1.82292 14.9849 1.93685 14.9116 2.0752 14.9116C2.15658 14.9116 2.24609 14.936 2.34375 14.9849C3.49121 15.5789 4.53695 15.876 5.48096 15.876C6.06689 15.876 6.51042 15.8109 6.81152 15.6807C7.11263 15.5505 7.26318 15.3348 7.26318 15.0337C7.26318 14.7407 7.10856 14.5047 6.79932 14.3257C6.49007 14.1385 5.99772 13.9595 5.32227 13.7886C4.44336 13.5688 3.73128 13.3206 3.18604 13.0439C2.64079 12.7673 2.22168 12.401 1.92871 11.9453C1.64388 11.4896 1.50146 10.9077 1.50146 10.1997C1.50146 9.64632 1.65202 9.13363 1.95312 8.66162C2.25423 8.18148 2.69368 7.79899 3.27148 7.51416C3.84928 7.22119 4.53695 7.07471 5.33447 7.07471C6.03434 7.07471 6.73014 7.1805 7.42188 7.39209C8.12174 7.60368 8.71175 7.85189 9.19189 8.13672C9.37093 8.23438 9.46045 8.35645 9.46045 8.50293C9.46045 8.58431 9.43197 8.66976 9.375 8.75928L8.58154 10.0898C8.48389 10.2526 8.36589 10.334 8.22754 10.334C8.20312 10.334 8.15837 10.3258 8.09326 10.3096C7.6945 10.098 7.24691 9.91488 6.75049 9.76025C6.25407 9.60563 5.78206 9.52832 5.33447 9.52832ZM10.9375 7.7583C10.9375 7.53857 11.0474 7.42871 11.2671 7.42871H12.4634V4.41357C12.4634 4.21826 12.557 4.08805 12.7441 4.02295L14.7339 3.2417C14.799 3.22542 14.8438 3.21729 14.8682 3.21729C14.9495 3.21729 15.0106 3.24577 15.0513 3.30273C15.1001 3.3597 15.1245 3.43701 15.1245 3.53467V7.42871H17.6514C17.8711 7.42871 17.981 7.53857 17.981 7.7583V9.62598C17.981 9.8457 17.8711 9.95557 17.6514 9.95557H15.1245V17.6948C15.1245 17.9146 15.0187 18.0244 14.8071 18.0244H12.8052C12.6994 18.0244 12.618 17.9959 12.561 17.939C12.5041 17.882 12.4756 17.8006 12.4756 17.6948V9.95557H11.2671C11.0474 9.95557 10.9375 9.8457 10.9375 9.62598V7.7583ZM29.1748 7.42871C29.4027 7.42871 29.5166 7.54671 29.5166 7.78271V17.6826C29.5166 17.7884 29.484 17.8739 29.4189 17.939C29.362 17.9959 29.2765 18.0244 29.1626 18.0244H27.6001C27.4129 18.0244 27.3031 17.9471 27.2705 17.7925L27.063 16.7061C26.6724 17.2188 26.1841 17.6216 25.5981 17.9146C25.0203 18.2075 24.3978 18.354 23.7305 18.354C22.8597 18.354 22.1029 18.1587 21.46 17.7681C20.8171 17.3774 20.3247 16.82 19.9829 16.0957C19.6411 15.3714 19.4702 14.521 19.4702 13.5444V7.79492C19.4702 7.68099 19.5028 7.59554 19.5679 7.53857C19.633 7.47347 19.7184 7.44092 19.8242 7.44092H21.7773C21.8913 7.44092 21.9767 7.47347 22.0337 7.53857C22.0988 7.59554 22.1313 7.68099 22.1313 7.79492V13.5688C22.1313 13.9839 22.2331 14.3623 22.4365 14.7041C22.6481 15.0459 22.9289 15.3185 23.2788 15.522C23.6369 15.7173 24.0234 15.8149 24.4385 15.8149C24.8779 15.8149 25.2808 15.7132 25.647 15.5098C26.0213 15.2982 26.3184 15.0093 26.5381 14.6431C26.7578 14.2687 26.8677 13.8496 26.8677 13.3857V7.78271C26.8677 7.54671 26.9816 7.42871 27.2095 7.42871H29.1748ZM42.6147 0.15332C42.7287 0.15332 42.8141 0.185872 42.8711 0.250977C42.9362 0.307943 42.9688 0.393392 42.9688 0.507324V17.646C42.9688 17.7599 42.9362 17.8494 42.8711 17.9146C42.8141 17.9797 42.7287 18.0122 42.6147 18.0122H41.0156C40.9505 18.0122 40.8895 17.9959 40.8325 17.9634C40.7837 17.9227 40.7511 17.8739 40.7349 17.8169L40.5151 16.3887C40.0838 17.0072 39.5426 17.4873 38.8916 17.8291C38.2406 18.1628 37.5244 18.3296 36.7432 18.3296C35.7829 18.3296 34.9162 18.0854 34.1431 17.5972C33.37 17.1089 32.7637 16.4375 32.3242 15.583C31.8848 14.7285 31.665 13.7723 31.665 12.7144C31.665 11.6564 31.8807 10.7002 32.312 9.8457C32.7515 8.99121 33.3577 8.32389 34.1309 7.84375C34.904 7.35547 35.7747 7.11133 36.7432 7.11133C37.4837 7.11133 38.1592 7.26188 38.7695 7.56299C39.388 7.85596 39.9129 8.27507 40.3442 8.82031L40.3076 0.507324C40.3076 0.40153 40.3361 0.316081 40.3931 0.250977C40.4582 0.185872 40.5436 0.15332 40.6494 0.15332H42.6147ZM37.2437 15.7661C37.8052 15.7661 38.3179 15.6318 38.7817 15.3633C39.2537 15.0866 39.624 14.7163 39.8926 14.2524C40.1693 13.7804 40.3076 13.2637 40.3076 12.7021C40.3076 12.1488 40.1693 11.6442 39.8926 11.1885C39.624 10.7246 39.2537 10.3584 38.7817 10.0898C38.3097 9.82129 37.793 9.68701 37.2314 9.68701C36.6862 9.68701 36.1816 9.82129 35.7178 10.0898C35.262 10.3584 34.8999 10.7246 34.6313 11.1885C34.3628 11.6523 34.2285 12.1569 34.2285 12.7021C34.2285 13.2637 34.3628 13.7804 34.6313 14.2524C34.8999 14.7163 35.262 15.0866 35.7178 15.3633C36.1816 15.6318 36.6903 15.7661 37.2437 15.7661ZM55.249 7.4165C55.3304 7.4165 55.3996 7.44092 55.4565 7.48975C55.5135 7.53857 55.542 7.60368 55.542 7.68506C55.542 7.73389 55.5298 7.78271 55.5054 7.83154L51.2939 17.7192L51.2573 17.7803L49.0967 22.9194C49.0153 23.1229 48.877 23.2246 48.6816 23.2246H46.8628C46.5861 23.2246 46.4478 23.127 46.4478 22.9316C46.4478 22.8747 46.4681 22.7852 46.5088 22.6631L48.7183 17.3042L44.6777 7.83154C44.6533 7.78271 44.6411 7.73389 44.6411 7.68506C44.6411 7.60368 44.6696 7.53857 44.7266 7.48975C44.7835 7.44092 44.8527 7.4165 44.9341 7.4165H47.0581C47.1639 7.4165 47.2575 7.44499 47.3389 7.50195C47.4202 7.55892 47.4772 7.63216 47.5098 7.72168L50.0977 14.6797L52.6733 7.72168C52.7059 7.63216 52.7629 7.55892 52.8442 7.50195C52.9256 7.44499 53.0192 7.4165 53.125 7.4165H55.249Z" fill="black"/>
</svg>
